<mxfile host="65bd71144e">
    <diagram id="hKfxKzu_sT4NZ2iY8Ak6" name="Page-1">
        <mxGraphModel dx="1402" dy="5963" grid="1" gridSize="10" guides="1" tooltips="1" connect="1" arrows="1" fold="1" page="1" pageScale="1" pageWidth="850" pageHeight="1100" math="0" shadow="0">
            <root>
                <mxCell id="0"/>
                <mxCell id="1" parent="0"/>
                <mxCell id="2" value="&lt;span style=&quot;&quot;&gt;&lt;font&gt;&lt;b style=&quot;&quot;&gt;&lt;i style=&quot;&quot;&gt;require package :-&lt;/i&gt;&lt;/b&gt;&lt;br&gt;express &lt;br&gt;cookie-parser&lt;br&gt;&amp;nbsp;bcrypt &lt;br&gt;mongoose &lt;br&gt;jsonwebtoken &lt;br&gt;cors &lt;br&gt;email-validation&lt;br&gt;nodemon&amp;nbsp;&lt;br&gt;&lt;/font&gt;&lt;/span&gt;" style="text;html=1;strokeColor=none;fillColor=none;align=left;verticalAlign=top;whiteSpace=wrap;rounded=0;sketch=1;hachureGap=4;jiggle=2;curveFitting=1;fontFamily=Helvetica;fontSize=20;labelBackgroundColor=#0D0D0D;fontColor=#E8E8E8;" vertex="1" parent="1">
                    <mxGeometry x="-80" y="-4990" width="550" height="630" as="geometry"/>
                </mxCell>
            </root>
        </mxGraphModel>
    </diagram>
</mxfile>